
<?xml version="1.0" encoding="UTF-8" standalone="no"?>
<!DOCTYPE svg PUBLIC "-//W3C//DTD SVG 1.1//EN" "http://www.w3.org/Graphics/SVG/1.1/DTD/svg11.dtd">
<svg xmlns="http://www.w3.org/2000/svg" xmlns:xlink="http://www.w3.org/1999/xlink" version="1.1" width="96pt" height="31pt" viewBox="0 0 96 31">
<g enable-background="new">
<clipPath id="cp0">
<path transform="matrix(1,0,0,-1,0,31)" d="M 30.77753 1.845238 C 34.408 1.845238 37.23108 2.738095 39.24677 4.52381 C 41.26247 6.309524 42.27031 8.844797 42.27031 12.12963 L 42.27031 25.52249 L 34.38573 25.52249 L 34.38573 12.36111 C 34.38573 10.95018 34.10732 9.897487 33.5505 9.203042 C 32.99367 8.508598 32.12503 8.161376 30.94457 8.161376 C 29.76411 8.161376 28.8899 8.508598 28.32195 9.203042 C 27.75399 9.897487 27.47001 10.95018 27.47001 12.36111 L 27.47001 25.52249 L 19.58543 25.52249 L 19.58543 12.36111 C 19.58543 10.95018 19.30701 9.897487 18.75019 9.203042 C 18.19337 8.508598 17.32473 8.161376 16.14427 8.161376 C 14.96381 8.161376 14.09517 8.508598 13.53835 9.203042 C 12.98153 9.897487 12.70312 10.95018 12.70312 12.36111 L 12.70312 25.52249 L 4.818533 25.52249 L 4.818533 12.12963 C 4.818533 8.844797 5.826379 6.309524 7.842071 4.52381 C 9.857763 2.738095 12.66971 1.845238 16.27791 1.845238 C 19.28474 1.845238 21.70135 2.572751 23.52772 4.027778 C 25.37636 2.572751 27.79297 1.845238 30.77753 1.845238 Z M 49.41989 21.91799 C 50.80081 21.91799 51.90332 22.28726 52.72741 23.02579 C 53.55151 23.76433 53.96355 24.70679 53.96355 25.85317 C 53.96355 26.93342 53.55151 27.81526 52.72741 28.49868 C 51.90332 29.1821 50.80081 29.52381 49.41989 29.52381 C 48.06125 29.52381 46.96431 29.16556 46.12908 28.44907 C 45.29385 27.73258 44.87623 26.82319 44.87623 25.7209 C 44.87623 24.61861 45.29385 23.70922 46.12908 22.99272 C 46.96431 22.27623 48.06125 21.91799 49.41989 21.91799 Z M 53.19514 2.374339 L 53.19514 20.46296 L 45.64465 20.46296 L 45.64465 2.374339 L 53.19514 2.374339 Z M 64.45406 2.043651 C 66.41407 2.043651 67.96203 2.363316 69.09795 3.002646 L 67.29385 8.194444 C 66.80384 7.863757 66.23589 7.698413 65.58997 7.698413 C 65.12225 7.698413 64.74361 7.852734 64.45406 8.161376 C 64.16451 8.470018 64.01974 8.899912 64.01974 9.451058 L 64.01974 14.01455 L 67.76158 14.01455 L 67.76158 19.4709 L 64.01974 19.4709 L 64.01974 24.53042 L 56.46925 24.53042 L 56.46925 9.384921 C 56.46925 6.937831 57.15971 5.102513 58.54062 3.878968 C 59.92154 2.655423 61.89268 2.043651 64.45406 2.043651 Z M 78.55277 2.374339 L 78.55277 10.87302 C 78.55277 12.12963 78.81447 13.05004 79.33788 13.63426 C 79.8613 14.21847 80.54619 14.51058 81.39255 14.51058 C 82.88483 14.51058 83.63097 13.47443 83.63097 11.40212 L 83.63097 2.374339 L 91.18147 2.374339 L 91.18147 12.6918 C 91.18147 15.40344 90.49658 17.43166 89.1268 18.77646 C 87.75702 20.12125 85.94735 20.79365 83.69779 20.79365 C 81.67096 20.79365 79.95596 20.19841 78.55277 19.00794 L 78.55277 26.91138 L 71.00227 26.91138 L 71.00227 2.374339 L 78.55277 2.374339 Z "/>
</clipPath>
<g clip-path="url(#cp0)">
<clipPath id="cp1">
<path transform="matrix(1,0,0,-1,0,31)" d="M -20 -727 L 355 -727 L 355 93 L -20 93 Z "/>
</clipPath>
<g clip-path="url(#cp1)">
<path transform="matrix(1,0,0,-1,0,31)" d="M -.1814672 34.52381 L 96.18147 34.52381 L 96.18147 -3.154762 L -.1814672 -3.154762 Z " fill="#ffffff"/>
</g>
</g>
</g>
</svg>
